<svg width="81" height="60" viewBox="0 0 81 60" fill="none" xmlns="http://www.w3.org/2000/svg">
<path fill-rule="evenodd" clip-rule="evenodd" d="M22.514 59.7058H59.5428C70.95 59.7058 80.1974 50.3952 80.1974 38.91C80.1974 27.4247 70.95 18.1141 59.5428 18.1141C56.1004 18.1141 52.8548 18.9619 50.0006 20.4616C46.0263 8.85534 35.083 0.517578 22.2056 0.517578C5.97226 0.517578 -7.18748 13.7673 -7.18748 30.1117C-7.18748 30.4467 -7.18195 30.7804 -7.17097 31.1127C-11.9097 33.6759 -15.1316 38.7135 -15.1316 44.5088C-15.1316 52.9019 -8.37386 59.7058 -0.0378036 59.7058H22.2056C22.252 59.7058 22.514 59.7058 22.514 59.7058H22.2056H22.514Z" fill="white"/>
<path fill-rule="evenodd" clip-rule="evenodd" d="M22.514 59.7058H59.5428C70.95 59.7058 80.1974 50.3952 80.1974 38.91C80.1974 27.4247 70.95 18.1141 59.5428 18.1141C56.1004 18.1141 52.8548 18.9619 50.0006 20.4616C46.0263 8.85534 35.083 0.517578 22.2056 0.517578C5.97226 0.517578 -7.18748 13.7673 -7.18748 30.1117C-7.18748 30.4467 -7.18195 30.7804 -7.17097 31.1127C-11.9097 33.6759 -15.1316 38.7135 -15.1316 44.5088C-15.1316 52.9019 -8.37386 59.7058 -0.0378036 59.7058H22.2056C22.252 59.7058 22.514 59.7058 22.514 59.7058H22.2056H22.514Z" fill="url(#paint0_linear_51_4616)"/>
<defs>
<linearGradient id="paint0_linear_51_4616" x1="80.1974" y1="0.517578" x2="80.1974" y2="59.7058" gradientUnits="userSpaceOnUse">
<stop stop-color="white"/>
<stop offset="1" stop-color="white" stop-opacity="0.01"/>
</linearGradient>
</defs>
</svg>
