<svg width="105" height="76" viewBox="0 0 105 76" fill="none" xmlns="http://www.w3.org/2000/svg">
<path fill-rule="evenodd" clip-rule="evenodd" d="M72.7259 75.2705H26.0971C11.7325 75.2705 0.0876465 63.5725 0.0876465 49.1423C0.0876465 34.7122 11.7325 23.0142 26.0971 23.0142C30.4319 23.0142 34.5191 24.0795 38.1133 25.9636C43.1179 11.3814 56.8983 0.905762 73.1143 0.905762C93.5563 0.905762 110.128 17.5529 110.128 38.0881C110.128 38.509 110.121 38.9282 110.107 39.3457C116.074 42.5662 120.132 48.8956 120.132 56.1768C120.132 66.722 111.622 75.2705 101.125 75.2705H73.1143C73.0559 75.2705 72.7259 75.2705 72.7259 75.2705H73.1143H72.7259Z" fill="white"/>
<path fill-rule="evenodd" clip-rule="evenodd" d="M72.7259 75.2705H26.0971C11.7325 75.2705 0.0876465 63.5725 0.0876465 49.1423C0.0876465 34.7122 11.7325 23.0142 26.0971 23.0142C30.4319 23.0142 34.5191 24.0795 38.1133 25.9636C43.1179 11.3814 56.8983 0.905762 73.1143 0.905762C93.5563 0.905762 110.128 17.5529 110.128 38.0881C110.128 38.509 110.121 38.9282 110.107 39.3457C116.074 42.5662 120.132 48.8956 120.132 56.1768C120.132 66.722 111.622 75.2705 101.125 75.2705H73.1143C73.0559 75.2705 72.7259 75.2705 72.7259 75.2705H73.1143H72.7259Z" fill="url(#paint0_linear_51_4620)"/>
<defs>
<linearGradient id="paint0_linear_51_4620" x1="0.0876465" y1="0.905762" x2="0.0876465" y2="75.2705" gradientUnits="userSpaceOnUse">
<stop stop-color="white"/>
<stop offset="1" stop-color="white" stop-opacity="0.01"/>
</linearGradient>
</defs>
</svg>
