<svg width="460" height="64" viewBox="0 0 460 64" fill="none" xmlns="http://www.w3.org/2000/svg">
<path fill-rule="evenodd" clip-rule="evenodd" d="M-5.04382 49.7732C-5.04382 49.7732 26.3616 7.34493 51.0084 3.07345C75.6551 -1.19802 89.2964 40.1611 89.2964 40.1611C89.2964 40.1611 100.836 38.3517 107.104 40.1611C113.371 41.9706 118.334 49.7732 118.334 49.7732C118.334 49.7732 126.317 24.8503 159.465 24.8503C192.614 24.8503 209.454 58.5208 209.454 58.5208C209.454 58.5208 220.488 49.7732 231.979 49.7732C243.47 49.7732 256.476 58.5208 256.476 58.5208C256.476 58.5208 264.593 24.8503 298.841 24.8503C333.089 24.8503 347.699 53.4241 347.699 53.4241C347.699 53.4241 361.537 44.6475 374.982 44.6475C388.428 44.6475 404.473 53.4241 404.473 53.4241C404.473 53.4241 408.975 25.7029 429.003 9.36384C449.031 -6.97523 492.638 3.07345 492.638 3.07345L516.491 15.6953V147.47H-5.04382V49.7732Z" fill="url(#paint0_linear_51_4600)"/>
<defs>
<linearGradient id="paint0_linear_51_4600" x1="-5.04382" y1="-0.753174" x2="-5.04382" y2="147.47" gradientUnits="userSpaceOnUse">
<stop stop-color="#4297A8"/>
<stop offset="1" stop-color="#77C8D3"/>
</linearGradient>
</defs>
</svg>
