<svg width="83" height="56" viewBox="0 0 83 56" fill="none" xmlns="http://www.w3.org/2000/svg">
<path opacity="0.9" d="M32.9868 55.6434H64.7257C74.5034 55.6434 82.4297 47.0279 82.4297 36.4002C82.4297 25.7724 74.5034 17.157 64.7257 17.157C61.7752 17.157 58.9932 17.9415 56.5467 19.3292C53.1402 8.58951 43.7603 0.874268 32.7225 0.874268C18.8081 0.874268 7.52837 13.1347 7.52837 28.2588C7.52837 28.5688 7.53311 28.8776 7.54252 29.185C3.48078 31.5569 0.719162 36.2184 0.719162 41.581C0.719162 49.3474 6.51148 55.6434 13.6567 55.6434H32.7225C32.7622 55.6434 32.9868 55.6434 32.9868 55.6434H32.7225H32.9868Z" fill="url(#paint0_linear_51_4613)"/>
<defs>
<linearGradient id="paint0_linear_51_4613" x1="82.4297" y1="0.874268" x2="82.4297" y2="55.6434" gradientUnits="userSpaceOnUse">
<stop stop-color="white"/>
<stop offset="1" stop-color="white" stop-opacity="0.01"/>
</linearGradient>
</defs>
</svg>
