<svg width="101" height="113" viewBox="0 0 101 113" fill="none" xmlns="http://www.w3.org/2000/svg">
<path fill-rule="evenodd" clip-rule="evenodd" d="M103.481 112.715H37.4559C17.116 112.715 0.627319 95.0579 0.627319 73.2763C0.627319 51.4948 17.116 33.8373 37.4559 33.8373C43.5938 33.8373 49.3811 35.4453 54.4703 38.2893C61.5567 16.2783 81.0693 0.46582 104.031 0.46582C132.976 0.46582 156.441 25.5937 156.441 56.5906C156.441 57.2259 156.431 57.8587 156.411 58.4889C164.861 63.35 170.605 72.9038 170.605 83.8945C170.605 99.8118 158.556 112.715 143.692 112.715H104.031C103.948 112.715 103.481 112.715 103.481 112.715H104.031H103.481Z" fill="url(#paint0_linear_51_4612)"/>
<defs>
<linearGradient id="paint0_linear_51_4612" x1="0.627319" y1="0.46582" x2="0.627319" y2="112.715" gradientUnits="userSpaceOnUse">
<stop stop-color="white"/>
<stop offset="1" stop-color="white" stop-opacity="0.01"/>
</linearGradient>
</defs>
</svg>
