<svg width="74" height="66" viewBox="0 0 74 66" fill="none" xmlns="http://www.w3.org/2000/svg">
<path fill-rule="evenodd" clip-rule="evenodd" d="M14.8424 65.1117H52.2629C63.7909 65.1117 73.1361 54.9608 73.1361 42.439C73.1361 29.9173 63.7909 19.7664 52.2629 19.7664C48.7842 19.7664 45.5042 20.6907 42.6198 22.3257C38.6035 9.67203 27.5444 0.581787 14.5307 0.581787C-1.87447 0.581787 -15.1735 15.0273 -15.1735 32.8468C-15.1735 33.212 -15.1679 33.5758 -15.1568 33.938C-19.9456 36.7326 -23.2016 42.2249 -23.2016 48.5432C-23.2016 57.6937 -16.3724 65.1117 -7.94814 65.1117H14.5307C14.5776 65.1117 14.8424 65.1117 14.8424 65.1117H14.5307H14.8424Z" fill="url(#paint0_linear_51_4611)"/>
<defs>
<linearGradient id="paint0_linear_51_4611" x1="73.1361" y1="0.581787" x2="73.1361" y2="65.1117" gradientUnits="userSpaceOnUse">
<stop stop-color="white"/>
<stop offset="1" stop-color="white" stop-opacity="0.01"/>
</linearGradient>
</defs>
</svg>
